<svg width="260" height="259" xmlns="http://www.w3.org/2000/svg" xmlns:xlink="http://www.w3.org/1999/xlink" xml:space="preserve" overflow="hidden"><defs><clipPath id="clip0"><rect x="565" y="250" width="260" height="259"/></clipPath></defs><g clip-path="url(#clip0)" transform="translate(-565 -250)"><path d="M187.233 144.602C182.926 130.671 168.659 122.361 154.414 125.491 149.692 126.529 145.321 128.765 141.722 131.991L135.701 137.384C134.392 138.555 132.529 138.885 130.9 138.23L123.394 135.217C118.906 133.418 114.035 132.811 109.244 133.45L109.244 133.45C94.7903 135.382 84.2232 148.068 84.9418 162.633L84.9418 162.633C85.4476 172.955 90.0311 182.676 97.7129 189.586 112.816 203.166 128.291 214.367 144.208 222.682 146.838 224.056 150.08 223.486 152.082 221.293 164.193 208.032 174.904 192.216 184.454 174.286 189.309 165.178 190.283 154.477 187.233 144.602L187.233 144.602ZM128.983 198.551C128.658 199.211 127.998 199.6 127.306 199.6 127.035 199.6 126.753 199.541 126.492 199.413 125.566 198.961 125.182 197.848 125.635 196.922L154.541 137.607C154.994 136.681 156.106 136.298 157.033 136.75 157.959 137.203 158.342 138.315 157.89 139.242L128.983 198.551ZM173.93 149.356 154.616 188.984C154.291 189.645 153.631 190.033 152.939 190.033 152.667 190.033 152.385 189.975 152.124 189.847 151.198 189.394 150.815 188.282 151.267 187.355L170.581 147.722C171.034 146.796 172.146 146.412 173.072 146.865 173.993 147.312 174.382 148.43 173.93 149.356Z" transform="matrix(1 0 0 1.00232 558.718 243.036)"/><path d="M137.554 50.7596 99.5283 57.4619C98.8256 57.5844 98.4316 58.4521 98.7031 59.2719L103.819 74.4758C104.032 75.1093 104.58 75.498 105.123 75.4021L138.432 69.5303C138.975 69.4345 139.359 68.8808 139.343 68.2154L138.943 52.1757C138.922 51.3133 138.257 50.6319 137.554 50.7596Z" transform="matrix(1 0 0 1.00232 558.718 243.036)"/><path d="M265.717 187.132 246.824 80.007C245.643 73.294 239.212 68.7957 232.504 69.9775L95.2961 94.1675 80.1613 55.5082C79.4054 53.5811 79.5545 51.441 80.5659 49.6364 81.5774 47.8317 83.3288 46.5913 85.3677 46.2293L147.003 35.364C149.239 34.9701 151.299 35.4705 152.811 36.7695 154.323 38.0684 155.122 40.0328 155.068 42.3006L154.286 74.8219C154.259 75.8493 155.074 76.7064 156.106 76.7277 156.122 76.7277 156.138 76.7277 156.154 76.7277 157.161 76.7277 157.991 75.9238 158.018 74.9071L158.8 42.3857C158.88 38.9787 157.618 35.9762 155.244 33.9373 152.87 31.8984 149.713 31.0999 146.359 31.6908L84.7289 42.5614C81.588 43.1151 78.889 45.0315 77.3239 47.8104 75.7641 50.5946 75.5352 53.8952 76.6957 56.8657L91.5536 94.8276 63.4509 99.7838 62.3489 93.5446C61.4545 88.4873 56.6102 85.0962 51.5581 85.9853L30.5143 89.6957C25.457 90.5901 22.0659 95.4292 22.955 100.486L24.0569 106.726 16.8649 107.993C13.6122 108.568 10.7801 110.372 8.88493 113.077 6.98976 115.781 6.26577 119.06 6.83538 122.313L25.7338 229.443C26.7879 235.432 32.0209 239.659 37.9034 239.659 38.6114 239.659 39.3354 239.595 40.0541 239.473L86.491 231.285C87.5025 231.104 88.1785 230.14 88.0029 229.129 87.8219 228.118 86.8583 227.436 85.8468 227.617L39.4099 235.805C34.7199 236.63 30.2322 233.489 29.407 228.799L15.8268 151.789 54.5925 144.954C55.604 144.773 56.2801 143.809 56.1044 142.798 55.9234 141.786 54.9599 141.11 53.9484 141.286L15.1826 148.121 10.5192 121.674C10.12 119.401 10.6257 117.112 11.9513 115.222 13.2768 113.332 15.2518 112.07 17.525 111.671L233.164 73.6507C237.854 72.8256 242.342 75.9664 243.167 80.6564L247.83 107.104 208.9 113.971C207.888 114.152 207.212 115.115 207.388 116.127 207.548 117.032 208.335 117.665 209.219 117.665 209.326 117.665 209.437 117.655 209.544 117.639L248.475 110.771 262.055 187.776C262.454 190.049 261.948 192.338 260.623 194.228 259.297 196.118 257.322 197.38 255.049 197.779L195.98 208.192C204.359 196.219 208.751 181.957 208.495 167.062 207.84 128.962 176.645 98.4156 138.688 98.4156 138.283 98.4156 137.879 98.421 137.474 98.4263 118.821 98.7457 101.413 106.31 88.45 119.726 75.4873 133.141 68.5242 150.804 68.8489 169.452 69.5037 207.553 100.699 238.099 138.656 238.099 139.061 238.099 139.465 238.094 139.87 238.088 158.523 237.769 175.931 230.204 188.894 216.789 190.214 215.421 191.471 214.01 192.663 212.557L255.693 201.441C258.946 200.867 261.778 199.062 263.673 196.357 265.568 193.664 266.292 190.385 265.717 187.132ZM27.7355 106.081 26.6335 99.8423C26.0958 96.8079 28.1347 93.9013 31.1691 93.369L52.2129 89.6585C55.2473 89.1208 58.154 91.1597 58.6863 94.1941L59.7883 100.433 27.7355 106.081ZM186.211 214.207C173.94 226.909 157.459 234.069 139.806 234.373 139.423 234.378 139.039 234.383 138.656 234.383 102.728 234.383 73.1929 205.466 72.57 169.399 72.2666 151.741 78.8571 135.025 91.1278 122.324 103.398 109.622 119.88 102.462 137.533 102.158 137.916 102.153 138.299 102.147 138.683 102.147 174.611 102.147 204.151 131.065 204.769 167.131 205.072 184.79 198.482 201.505 186.211 214.207Z" transform="matrix(1 0 0 1.00232 558.718 243.036)"/><path d="M234.303 233.846 221.602 228.288C220.659 227.878 219.563 228.304 219.147 229.246 218.732 230.188 219.163 231.285 220.106 231.7L232.808 237.258C233.052 237.364 233.303 237.412 233.553 237.412 234.271 237.412 234.953 236.997 235.262 236.294 235.677 235.357 235.246 234.256 234.303 233.846Z" transform="matrix(1 0 0 1.00232 558.718 243.036)"/><path d="M187.861 249.459C187.616 248.459 186.605 247.852 185.604 248.097 184.603 248.342 183.996 249.353 184.241 250.354L187.574 263.812C187.781 264.658 188.543 265.228 189.378 265.228 189.527 265.228 189.676 265.212 189.826 265.174 190.826 264.93 191.433 263.918 191.188 262.917L187.861 249.459Z" transform="matrix(1 0 0 1.00232 558.718 243.036)"/><path d="M29.1462 42.636 42.2952 47.0278C42.4922 47.0917 42.6892 47.1237 42.8862 47.1237 43.6634 47.1237 44.3927 46.6286 44.6536 45.8513 44.9783 44.8772 44.4513 43.8178 43.4771 43.493L30.328 39.1011C29.3485 38.7764 28.2944 39.3034 27.9697 40.2776 27.645 41.2572 28.172 42.3112 29.1462 42.636Z" transform="matrix(1 0 0 1.00232 558.718 243.036)"/><path d="M73.9967 22.907C74.2629 23.679 74.9869 24.1634 75.7588 24.1634 75.9611 24.1634 76.1634 24.1315 76.3657 24.0622 77.3399 23.7269 77.8563 22.6675 77.5156 21.6933L72.9853 8.59214C72.6499 7.61794 71.5905 7.10156 70.6163 7.44226 69.6421 7.77764 69.1257 8.83702 69.4664 9.81122L73.9967 22.907Z" transform="matrix(1 0 0 1.00232 558.718 243.036)"/></g></svg>